:version 1.10
:name ASF
:units
  mass 1
  length 1
  angle deg
:documentation
  ASF file generated by Kaydara
:root
  axis xyz
  order  tx ty tz rx ry rz
  position 0 0 0
  orientation 0 0 0
:bonedata
  begin
    id 1
    name lowerbackDummy
    direction 0 0 0
    length 0
    axis 0 -0 0 xyz
  end
  begin
    id 2
    name lowerback
    direction 0.0149039 0.998517 -0.0523597
    length 4.68464
    axis 0 -0 0 xyz
    dof rx ry rz
    limits( -inf , inf )
( -inf , inf )
( -inf , inf )

  end
  begin
    id 3
    name upperback
    direction -0.00882659 0.999418 -0.0329624
    length 4.68933
    axis 0 -0 0 xyz
    dof rx ry rz
    limits( -inf , inf )
( -inf , inf )
( -inf , inf )

  end
  begin
    id 4
    name thorax
    direction -0.0165585 0.999826 -0.0085833
    length 4.68976
    axis 0 -0 0 xyz
    dof rx ry rz
    limits( -inf , inf )
( -inf , inf )
( -inf , inf )

  end
  begin
    id 5
    name lowerneck
    direction -0.0130877 0.999911 0.00260353
    length 3.85007
    axis 0 -0 0 xyz
    dof rx ry rz
    limits( -inf , inf )
( -inf , inf )
( -inf , inf )

  end
  begin
    id 6
    name upperneck
    direction -0.0348454 0.928205 -0.370435
    length 3.70427
    axis 0 -0 0 xyz
    dof rx ry rz
    limits( -inf , inf )
( -inf , inf )
( -inf , inf )

  end
  begin
    id 7
    name head
    direction 0 0 0
    length 0
    axis 0 0 0 xyz
    dof rx ry rz
    limits( -inf , inf )
( -inf , inf )
( -inf , inf )

  end
  begin
    id 8
    name lclavicle
    direction 0.987582 0.144023 0.0627671
    length 7.76078
    axis 0 -0 0 xyz
    dof rx ry rz
    limits( -inf , inf )
( -inf , inf )
( -inf , inf )

  end
  begin
    id 9
    name lhumerus
    direction 1 -4.48958e-011 -1.45183e-018
    length 12.0426
    axis 180 -30 -90 xyz
    dof rx ry rz
    limits( -inf , inf )
( -inf , inf )
( -inf , inf )

  end
  begin
    id 10
    name lradius
    direction 1 -4.48999e-011 3.74805e-027
    length 5.43051
    axis 180 -30 -90 xyz
    dof rz ry rx
    limits( -inf , inf )
( -inf , inf )
( -inf , inf )

  end
  begin
    id 11
    name lwrist
    direction 1 -4.48988e-011 -4.48237e-017
    length 2.71524
    axis -90 90 0 xyz
    dof rz rx ry
    limits( -inf , inf )
( -inf , inf )
( -inf , inf )

  end
  begin
    id 12
    name lhand
    direction 1 -4.48882e-011 -4.48237e-017
    length 1.61667
    axis -90 90 0 xyz
    dof ry rx rz
    limits( -inf , inf )
( -inf , inf )
( -inf , inf )

  end
  begin
    id 13
    name lfingers
    direction 0 0 0
    length 0
    axis 0 0 0 xyz
    dof rz ry rx
    limits( -inf , inf )
( -inf , inf )
( -inf , inf )

  end
  begin
    id 14
    name lthumb
    direction 0 0 0
    length 0
    axis 0 0 0 xyz
    dof ry rx rz
    limits( -inf , inf )
( -inf , inf )
( -inf , inf )

  end
  begin
    id 15
    name rclavicle
    direction -0.980998 0.169556 0.0943023
    length 7.31716
    axis 0 -0 0 xyz
    dof rx ry rz
    limits( -inf , inf )
( -inf , inf )
( -inf , inf )

  end
  begin
    id 16
    name rhumerus
    direction -1 -1.83355e-005 2.45537e-005
    length 12.4217
    axis 180 30 90 xyz
    dof rx ry rz
    limits( -inf , inf )
( -inf , inf )
( -inf , inf )

  end
  begin
    id 17
    name rradius
    direction -1 -4.48967e-011 0
    length 5.51244
    axis 180 30 90 xyz
    dof rz ry rx
    limits( -inf , inf )
( -inf , inf )
( -inf , inf )

  end
  begin
    id 18
    name rwrist
    direction -1 -4.48964e-011 -4.48237e-017
    length 2.75622
    axis -90 -90 0 xyz
    dof rz rx ry
    limits( -inf , inf )
( -inf , inf )
( -inf , inf )

  end
  begin
    id 19
    name rhand
    direction -1 -4.48882e-011 -4.48237e-017
    length 1.81335
    axis -90 -90 0 xyz
    dof ry rx rz
    limits( -inf , inf )
( -inf , inf )
( -inf , inf )

  end
  begin
    id 20
    name rfingers
    direction 0 0 0
    length 0
    axis 0 0 0 xyz
    dof rz ry rx
    limits( -inf , inf )
( -inf , inf )
( -inf , inf )

  end
  begin
    id 21
    name rthumb
    direction 0 0 0
    length 0
    axis 0 0 0 xyz
    dof ry rx rz
    limits( -inf , inf )
( -inf , inf )
( -inf , inf )

  end
  begin
    id 22
    name rfemurDummy
    direction -0.640058 -0.688614 0.340788
    length 5.51442
    axis 0 -0 0 xyz
  end
  begin
    id 23
    name rfemur
    direction -0.34202 -0.939693 0
    length 14.6194
    axis 0 -0 -20 xyz
    dof rx ry rz
    limits( -inf , inf )
( -inf , inf )
( -inf , inf )

  end
  begin
    id 24
    name rtibia
    direction -0.34202 -0.939693 0
    length 17.7267
    axis 0 -0 -20 xyz
    dof rz ry rx
    limits( -inf , inf )
( -inf , inf )
( -inf , inf )

  end
  begin
    id 25
    name rfoot
    direction -0.0979793 -0.269196 0.958089
    length 4.88571
    axis -90 -7.62852e-016 -20 xyz
    dof ry rx rz
    limits( -inf , inf )
( -inf , inf )
( -inf , inf )

  end
  begin
    id 26
    name rtoes
    direction 0 0 0
    length 0
    axis 0 0 0 xyz
    dof rz ry rx
    limits( -inf , inf )
( -inf , inf )
( -inf , inf )

  end
  begin
    id 27
    name lfemurDummy
    direction 0.653368 -0.678499 0.335782
    length 5.59662
    axis 0 -0 0 xyz
  end
  begin
    id 28
    name lfemur
    direction 0.34202 -0.939693 0
    length 14.6166
    axis 0 -0 20 xyz
    dof rx ry rz
    limits( -inf , inf )
( -inf , inf )
( -inf , inf )

  end
  begin
    id 29
    name ltibia
    direction 0.34202 -0.939693 0
    length 17.6582
    axis 0 -0 20 xyz
    dof rz ry rx
    limits( -inf , inf )
( -inf , inf )
( -inf , inf )

  end
  begin
    id 30
    name lfoot
    direction 0.0811271 -0.222895 0.971461
    length 5.14087
    axis -90 7.62852e-016 20 xyz
    dof ry rx rz
    limits( -inf , inf )
( -inf , inf )
( -inf , inf )

  end
  begin
    id 31
    name ltoes
    direction 0 0 0
    length 0
    axis 0 0 0 xyz
    dof rz ry rx
    limits( -inf , inf )
( -inf , inf )
( -inf , inf )

  end
:hierarchy
  begin
    root lowerbackDummy rfemurDummy lfemurDummy
    lowerbackDummy lowerback
    lowerback upperback
    upperback thorax
    thorax lowerneck lclavicle rclavicle
    lowerneck upperneck
    upperneck head
    lclavicle lhumerus
    lhumerus lradius
    lradius lwrist
    lwrist lhand lthumb
    lhand lfingers
    rclavicle rhumerus
    rhumerus rradius
    rradius rwrist
    rwrist rhand rthumb
    rhand rfingers
    rfemurDummy rfemur
    rfemur rtibia
    rtibia rfoot
    rfoot rtoes
    lfemurDummy lfemur
    lfemur ltibia
    ltibia lfoot
    lfoot ltoes
  end

:SAMPLES-PER-SECOND 30
:FULLY-SPECIFIED
:DEGREES
59
root  1.683242302 37.23977757 -35.88955496 11.1807003 -1.022330046 1.006289959
lowerback  -4.668859959 2.771780014 -3.455729961
upperback  -4.170519829 3.780430079 -2.350260019
thorax  -1.74616003 1.94385004 -0.3723770082
lowerneck  -14.96790028 -2.49090004 -3.353590012
upperneck  36.15280151 -3.15286994 1.529119968
head  15.22539997 -1.563840032 0.7021870017
lclavicle  0 5.864150125e-015 -2.067359921e-014
lhumerus  -39.80339813 29.67550087 63.09669876
lradius  -2.993135768e-031 -1.873494679e-031 32.04370117
lwrist  -7.062250077e-031 -0 -2.921809912
lhand  -3.532120319e-031 -1.360200047 18.02879906
lfingers  90 7.125020027 -90
lthumb  90.62131482 1.376607173 65.70563604
rclavicle  0 5.864150125e-015 -2.067359921e-014
rhumerus  -43.36059952 -15.06050014 -73.43080139
rradius  3.228170238e-031 1.430999984e-031 23.90699959
rwrist  7.062250077e-031 -0 -5.505489826
rhand  -3.533864335e-031 -2.256109953 11.27970028
rfingers  -90 -7.125020027 -90
rthumb  -78.21626979 -25.23426196 -63.92575845
rfemur  -17.03370094 1.788599968 21.63599968
rtibia  -0 0 55.98210144
rfoot  -0 1.28263998 -13.73890018
rtoes  3.33511552 19.73120178 -99.79333665
lfemur  -29.23880005 -8.123129845 -22.90859985
ltibia  -0 0 30.25769997
lfoot  -0 -19.14109993 19.87059975
ltoes  1.560284882 -19.94153003 -85.43376387
60
root  1.763033304 37.25400009 -35.57466522 11.30000019 -0.9014809728 1.144979954
lowerback  -4.727330208 2.562410116 -3.364360094
upperback  -4.144790173 3.503000021 -2.294579983
thorax  -1.679020047 1.802700043 -0.36906901
lowerneck  -15.77960014 -2.280459881 -3.135070086
upperneck  36.82910156 -2.720900059 1.085980058
head  15.72329998 -1.409800053 0.543438971
lclavicle  0 5.864150125e-015 -2.067359921e-014
lhumerus  -39.41080093 30.16819954 63.23809814
lradius  -2.983426956e-031 -1.888917054e-031 32.33940125
lwrist  -7.062250077e-031 -0 -3.53015995
lhand  -3.532222869e-031 -1.428539991 19.25690079
lfingers  90 7.125020027 -90
lthumb  91.12779519 2.505193922 65.75394018
rclavicle  0 5.864150125e-015 -2.067359921e-014
rhumerus  -43.25059891 -14.16069984 -73.8125
rradius  3.224997897e-031 1.438135112e-031 24.03370094
rwrist  7.062250077e-031 -1.765562519e-031 -5.619599819
rhand  -1.767064266e-031 -2.36232996 10.61639977
rfingers  -90 -7.125020027 -90
rthumb  -78.58902162 -24.64672282 -64.17345457
rfemur  -18.35099983 0.9614989758 21.23579979
rtibia  -0 0 57.00019836
rfoot  -0 1.237290025 -13.73999977
rtoes  3.344567691 19.72966378 -99.82133518
lfemur  -28.76530075 -8.225790024 -23.31629944
ltibia  -0 0 30.22699928
lfoot  -0 -19.29520035 20.01049995
ltoes  1.651454305 -19.93448393 -85.16640781
61
root  1.768259927 37.24777642 -35.34422146 11.71850014 -1.335989952 0.926436007
lowerback  -4.960680008 2.771939993 -3.471100092
upperback  -4.370250225 3.789799929 -2.210939884
thorax  -1.801159978 1.953359962 -0.2123900056
lowerneck  -15.91279984 -2.223069906 -2.582329988
upperneck  37.39810181 -2.62680006 0.5927050114
head  16.01799965 -1.359629989 0.2485039979
lclavicle  0 5.864150125e-015 -2.067359921e-014
lhumerus  -38.87730026 29.15159988 64.01170349
lradius  -2.960490327e-031 -1.924666481e-031 33.02859879
lwrist  -1.059337512e-030 -3.531125038e-031 -3.392879963
lhand  -3.531586463e-031 -0.9262059927 20.81089973
lfingers  90 7.125020027 -90
lthumb  91.77298777 3.847827789 65.23753843
rclavicle  0 5.864150125e-015 -2.067359921e-014
rhumerus  -43.72449875 -13.97360039 -73.86340332
rradius  3.214858947e-031 1.460659436e-031 24.43449974
rwrist  7.062250077e-031 -0 -5.711750031
rhand  -1.767327325e-031 -2.56072998 9.890370369
rfingers  -90 -7.125020027 -90
rthumb  -79.02976333 -24.00747359 -64.52512945
rfemur  -20.43510056 1.267699957 21.50440025
rtibia  -0 0 57.94670105
rfoot  -0 1.259140015 -13.67319965
rtoes  3.422257502 19.71685227 -100.0515424
lfemur  -28.85880089 -7.890580177 -23.10479927
ltibia  -0 0 30.1868
lfoot  -0 -19.45479965 20.1208992
ltoes  2.259209041 -19.87718346 -83.38151701
62
root  1.80312442 37.26955624 -35.02999854 11.48630047 -0.8669859767 0.9386199713
lowerback  -4.584799767 2.632450104 -3.406419992
upperback  -4.40982008 3.582400084 -2.185080051
thorax  -2.044219971 1.851289988 -0.2489250004
lowerneck  -16.03490067 -2.148590088 -2.250950098
upperneck  37.86510086 -2.525279999 0.3355979919
head  16.27359962 -1.304630041 0.09330280125
lclavicle  0 5.864150125e-015 -2.067359921e-014
lhumerus  -38.62590027 27.84830093 64.74140167
lradius  -2.921986028e-031 -1.982635037e-031 34.15779877
lwrist  -1.059337512e-030 -0 -3.02541995
lhand  -7.062587198e-031 -0.5598229766 22.3015995
lfingers  90 7.125020027 -90
lthumb  92.41109036 5.142503544 64.83760928
rclavicle  0 5.864150125e-015 -2.067359921e-014
rhumerus  -44.18119812 -13.67730045 -74.05139923
rradius  3.204202764e-031 1.483889713e-031 24.8491993
rwrist  1.412450015e-030 -3.531125038e-031 -5.687699795
rhand  -0 -2.342149973 11.15690041
rfingers  -90 -7.125020027 -90
rthumb  -78.31885997 -25.13124391 -64.04251078
rfemur  -21.30419922 0.5580599904 21.59339905
rtibia  -0 0 58.54460144
rfoot  -0 0.5585619807 -13.53559971
rtoes  4.044892997 19.6031246 -101.9020697
lfemur  -27.99099922 -8.018280029 -23.25399971
ltibia  -0 0 30.11009979
lfoot  -0 -19.66640091 19.74500084
ltoes  2.979208186 -19.78585432 -81.25944035
63
root  1.85297324 37.28311193 -34.70355657 11.29650021 -1.068779945 0.9716209769
lowerback  -4.335649967 2.738869905 -3.250839949
upperback  -4.505919933 3.703569889 -2.279040098
thorax  -2.268790007 1.909289956 -0.4459260106
lowerneck  -15.78779984 -2.186259985 -2.16753006
upperneck  38.15859985 -2.657030106 0.4277999997
head  16.36750031 -1.334300041 0.0965076983
lclavicle  0 5.864150125e-015 -2.067359921e-014
lhumerus  -38.43780136 26.24570084 65.51509857
lradius  -2.881349631e-031 -2.041241863e-031 35.31499863
lwrist  -7.062250077e-031 -3.531125038e-031 -2.655780077
lhand  -7.062267763e-031 -0.1282269955 23.49080086
lfingers  90 7.125020027 -90
lthumb  92.93923149 6.144858067 64.3747002
rclavicle  0 5.864150125e-015 -2.067359921e-014
rhumerus  -44.79669952 -13.30910015 -74.37460327
rradius  3.191113072e-031 1.511833787e-031 25.34989929
rwrist  0 -1.765562519e-031 -5.784530163
rhand  -3.534445464e-031 -2.483750105 10.62899971
rfingers  -90 -7.125020027 -90
rthumb  -78.642453 -24.66782747 -64.29954072
rfemur  -22.27169991 0.3594940007 21.45639992
rtibia  -0 0 59.02280045
rfoot  -0 -0.3882339895 -13.43910027
rtoes  4.155019303 19.58094628 -102.2304898
lfemur  -27.1473999 -8.239859581 -23.45700073
ltibia  -0 0 30.0965004
lfoot  -0 -20.12660027 20.13660049
ltoes  2.969590596 -19.78724339 -81.28785129
64
root  1.886666666 37.28022237 -34.44111141 11.59959984 -0.9784619808 0.946393013
lowerback  -4.762899876 2.631330013 -3.386470079
upperback  -4.497119904 3.587340117 -2.068540096
thorax  -2.041690111 1.855839968 -0.1341930032
lowerneck  -15.51070023 -2.123260021 -2.18840003
upperneck  38.19200134 -2.531219959 0.3546519876
head  16.31299973 -1.296630025 0.09444899857
lclavicle  0 5.864150125e-015 -2.067359921e-014
lhumerus  -38.15299988 25.54490089 66.33789825
lradius  -2.841573449e-031 -2.096259615e-031 36.41659927
lwrist  -1.059337512e-030 -0 -2.576250076
lhand  -7.063134376e-031 0.9066569805 22.97820091
lfingers  90 7.125020027 -90
lthumb  92.74913035 5.504798638 63.4093092
rclavicle  0 5.864150125e-015 -2.067359921e-014
rhumerus  -44.8370018 -12.54249954 -74.66619873
rradius  3.18477098e-031 1.525148466e-031 25.58919907
rwrist  7.062250077e-031 -3.531125038e-031 -5.913129807
rhand  -3.534992969e-031 -2.680540085 10.88300037
rfingers  -90 -7.125020027 -90
rthumb  -78.61824383 -24.91270267 -64.4574274
rfemur  -23.89480019 0.1119330004 21.50729942
rtibia  -0 0 59.40409851
rfoot  -0 -1.232689977 -13.75030041
rtoes  4.554521157 19.49521581 -103.4250147
lfemur  -27.03540039 -8.488900185 -23.4829998
ltibia  -0 0 30.09799957
lfoot  -0 -20.29109955 20.38190079
ltoes  3.266459554 -19.74223829 -80.40996863
65
root  1.930315476 37.26355485 -34.17289013 11.79839993 -0.8982899785 0.9565169811
lowerback  -5.018209934 2.435379982 -3.534960032
upperback  -4.378600121 3.349519968 -1.82438004
thorax  -1.794800043 1.740229964 0.2092919946
lowerneck  -15.63210011 -1.987969995 -2.078490019
upperneck  38.15280151 -2.231719971 0.02680159919
head  16.30979919 -1.203510046 -0.01576160081
lclavicle  0 5.864150125e-015 -2.067359921e-014
lhumerus  -37.81900024 25.39599991 66.89360046
lradius  -2.806270019e-031 -2.143290138e-031 37.37080002
lwrist  -3.531125038e-031 -3.531125038e-031 -2.443480015
lhand  -3.534398537e-031 2.466150045 19.89069939
lfingers  90 7.125020027 -90
lthumb  91.32737283 2.499846539 62.02073689
rclavicle  0 5.864150125e-015 -2.067359921e-014
rhumerus  -44.53749847 -11.77960014 -74.9414978
rradius  3.178112814e-031 1.538974651e-031 25.83819962
rwrist  7.062250077e-031 -0 -5.930960178
rhand  -3.534987281e-031 -2.678570032 11.47049999
rfingers  -90 -7.125020027 -90
rthumb  -78.33674115 -25.44231663 -64.3359833
rfemur  -25.32489967 -0.1690829992 21.52669907
rtibia  -0 0 59.74240112
rfoot  -0 -2.158699989 -14.02690029
rtoes  5.071323443 19.3718795 -104.9782251
lfemur  -26.8404007 -8.934909821 -23.53639984
ltibia  -0 0 30.19849968
lfoot  -0 -21.25909996 20.3477993
ltoes  2.525475235 -19.84638896 -82.59782112
66
root  1.967780046 37.24177804 -33.89977883 11.88090038 -0.8573070168 0.8453509808
lowerback  -5.091650009 2.32198 -3.45133996
upperback  -4.15899992 3.207380056 -1.673380017
thorax  -1.525859952 1.663640022 0.3243170083
lowerneck  -16.02149963 -1.915259957 -1.986719966
upperneck  38.12590027 -2.07859993 -0.1444869936
head  16.38570023 -1.150670052 -0.08384709805
lclavicle  0 5.864150125e-015 -2.067359921e-014
lhumerus  -37.18209839 25.02389908 67.46459961
lradius  -2.768414128e-031 -2.191968808e-031 38.37139893
lwrist  -1.059337512e-030 -3.531125038e-031 -2.247489929
lhand  -3.535083063e-031 2.711549997 20.4204998
lfingers  90 7.125020027 -90
lthumb  91.5701719 2.927295781 61.77497769
rclavicle  0 5.864150125e-015 -2.067359921e-014
rhumerus  -44.12179947 -11.69299984 -75.04620361
rradius  3.171492212e-031 1.552572442e-031 26.08359909
rwrist  1.412450015e-030 -3.531125038e-031 -5.690030098
rhand  -3.53397956e-031 -2.303040028 11.14070034
rfingers  -90 -7.125020027 -90
rthumb  -78.30715528 -25.11339915 -64.00429244
rfemur  -26.57080078 -0.3474949896 21.69149971
rtibia  -0 0 59.95930099
rfoot  -0 -3.385699987 -14.36380005
rtoes  5.166129615 19.34770973 -105.2642167
lfemur  -26.53359985 -9.345629692 -23.48959923
ltibia  -0 0 30.36569977
lfoot  -0 -21.94370079 20.59749985
ltoes  1.295115741 -19.95973658 -86.21089602
67
root  1.996620058 37.22599961 -33.63377729 11.9453001 -0.6688529849 0.7686150074
lowerback  -5.025720119 2.329289913 -3.152029991
upperback  -4.349339962 3.197659969 -1.76304996
thorax  -1.736410022 1.654950023 0.05696240067
lowerneck  -14.97809982 -1.945090055 -1.706110001
upperneck  37.85039902 -2.211339951 -0.2152419984
head  15.98079967 -1.178529978 -0.1734970063
lclavicle  0 5.864150125e-015 -2.067359921e-014
lhumerus  -37.17150116 23.6413002 67.7378006
lradius  -2.726736278e-031 -2.243602752e-031 39.44810104
lwrist  -7.062250077e-031 -0 -1.980620027
lhand  -3.535269961e-031 2.774770021 20.56439972
lfingers  90 7.125020027 -90
lthumb  91.63679841 3.043549028 61.7112132
rclavicle  0 5.864150125e-015 -2.067359921e-014
rhumerus  -44.77909851 -11.73499966 -75.19360352
rradius  3.159737324e-031 1.576357853e-031 26.51409912
rwrist  7.062250077e-031 -3.531125038e-031 -5.904789925
rhand  -3.533583166e-031 -2.13725996 10.77709961
rfingers  -90 -7.125020027 -90
rthumb  -78.40097639 -24.77286892 -63.90265607
rfemur  -27.73240089 -0.477952987 21.84219933
rtibia  -0 0 60.02479935
rfoot  -0 -5.31483984 -14.97280025
rtoes  5.396537903 19.28694925 -105.9607277
lfemur  -26.2602005 -9.69604969 -23.46699905
ltibia  -0 0 30.61319923
lfoot  -0 -22.28790092 20.69140053
ltoes  0.8106345178 -19.98423725 -87.62926588
